:SAMPLES-PER-SECOND 30
:FULLY-SPECIFIED
:DEGREES
202
root  -3.50209 36.2712 9.94925 -30.5708 -74.6568 27.2151
RightUpLeg  3.69751 -11.7127 -43.6633
RightLeg  12.3186 -19.7151 -7.48305
RightFoot  32.9839 -10.4432 26.0079
RightToes  -6.40286e-010 0 -3.6325e-017
Spine  18.7171 4.88862 20.8391
Spine1  -30.2731 5.35253 -18.6882
HEad  2.41353 -19.9363 -7.35407
LeftShoulder1  0.0463482 2.86666 1.48021
LeftArm  4.11425 9.56003 -7.28056
LeftForeArm  46.7668 -5.29296 -12.6272
LeftHand  1.60217 8.97938 47.7224
RightShoulder  0.897824 -13.7839 -19.4732
RightArm  -59.9486 15.0222 -25.0084
RightForeArm  -23.1496 7.76668 -2.13481
RightHand  -0.714014 -1.8383 -23.0969
LeftUpLeg  -14.1566 33.2731 23.6322
LeftLeg  37.6383 -13.6014 -10.6677
LeftFoot  13.6165 7.11018 -31.7745
LeftToes  -2.09187e-010 -4.93792e-011 -8.21189e-011
203
root  -3.46643 36.8409 11.0426 -29.761 -72.7901 26.6633
RightUpLeg  6.39462 -19.5693 -44.8445
RightLeg  5.11466 -16.9548 -7.19239
RightFoot  43.0453 -8.56021 17.139
RightToes  -6.40286e-010 0 -3.6325e-017
Spine  18.4414 6.27173 22.2728
Spine1  -30.6744 6.51528 -21.0425
HEad  2.83735 -24.5165 -7.47428
LeftShoulder1  -0.0406396 4.29918 3.83725
LeftArm  1.05185 7.93367 -5.37999
LeftForeArm  46.8867 -4.17176 -12.4401
LeftHand  1.04857 7.97667 43.694
RightShoulder  0.831457 -12.897 -19.6038
RightArm  -58.6639 16.1337 -25.6503
RightForeArm  -23.269 5.2822 -2.19576
RightHand  -0.611589 -2.20659 -22.0502
LeftUpLeg  -14.1085 36.9679 21.06
LeftLeg  37.6012 -16.8935 -13.1784
LeftFoot  14.7145 6.78917 -29.1767
LeftToes  -2.09187e-010 -4.93792e-011 -8.21189e-011
204
root  -3.37515 37.2089 11.9046 -27.4273 -70.7021 24.6416
RightUpLeg  8.5895 -21.6486 -45.447
RightLeg  1.42733 -19.8469 -5.53366
RightFoot  47.1928 -6.09847 11.4505
RightToes  -6.40286e-010 0 -3.6325e-017
Spine  18.5697 7.19354 22.9418
Spine1  -31.8505 7.08729 -22.7303
HEad  3.16995 -28.7003 -7.3225
LeftShoulder1  -0.0682543 5.76141 6.20535
LeftArm  -4.31678 5.57117 -3.25882
LeftForeArm  45.6738 -2.5867 -11.6864
LeftHand  0.527664 6.83299 39.5697
RightShoulder  0.684932 -11.5543 -19.2178
RightArm  -57.2818 16.9887 -26.2217
RightForeArm  -23.3849 2.95962 -2.2325
RightHand  -0.540011 -2.43891 -20.9681
LeftUpLeg  -15.0417 39.6239 18.4326
LeftLeg  38.0303 -18.6933 -14.7321
LeftFoot  15.1541 6.08441 -25.8406
LeftToes  -2.09187e-010 -4.93792e-011 -8.21189e-011
205
root  -3.21918 37.3408 12.598 -25.1422 -68.9511 22.5506
RightUpLeg  9.69226 -21.1869 -45.2507
RightLeg  0.392261 -23.3926 -4.90005
RightFoot  48.0335 -5.33842 9.98438
RightToes  -6.40286e-010 0 -3.6325e-017
Spine  18.8527 7.78468 23.5877
Spine1  -32.5987 7.42803 -24.3737
HEad  1.90643 -32.6706 -6.19846
LeftShoulder1  -0.0445848 7.58566 8.40006
LeftArm  -10.565 2.32003 -1.10393
LeftForeArm  41.1186 -0.647257 -10.2345
LeftHand  0.205721 6.00849 35.7591
RightShoulder  0.51021 -9.94259 -18.5546
RightArm  -56.0542 17.1749 -26.4675
RightForeArm  -21.4536 1.08633 -2.25909
RightHand  -0.479508 -2.60771 -19.7135
LeftUpLeg  -16.1589 39.6114 16.5271
LeftLeg  38.9404 -19.8217 -16.0581
LeftFoot  13.9075 5.5518 -24.8362
LeftToes  -2.09187e-010 -4.93792e-011 -8.21189e-011
206
root  -3.04335 37.2733 13.1676 -24.1934 -68.0362 21.739
RightUpLeg  9.52924 -20.8745 -45.1784
RightLeg  0.709111 -23.6245 -5.59871
RightFoot  48.6613 -5.22768 9.68408
RightToes  -6.40286e-010 0 -3.6325e-017
Spine  18.6458 8.3456 24.0853
Spine1  -31.7894 7.99909 -26.0144
HEad  -1.79847 -36.1395 -3.58505
LeftShoulder1  0.0408647 9.9555 10.374
LeftArm  -16.6105 -1.33639 1.41252
LeftForeArm  34.309 1.69309 -8.60821
LeftHand  0.0907827 5.6872 32.4532
RightShoulder  0.337186 -8.2824 -17.5512
RightArm  -53.9989 17.0228 -26.49
RightForeArm  -17.6344 -0.443469 -1.79771
RightHand  -0.445213 -2.6493 -18.5732
LeftUpLeg  -16.588 37.6337 15.6927
LeftLeg  39.9735 -20.8294 -17.4066
LeftFoot  10.7315 5.33128 -27.256
LeftToes  -2.09187e-010 -4.93792e-011 -8.21189e-011
207
root  -2.86499 37.0769 13.6194 -24.4742 -67.8001 22.3833
RightUpLeg  8.54625 -21.2229 -45.8352
RightLeg  1.32022 -21.228 -6.19632
RightFoot  49.4734 -4.66372 8.57969
RightToes  -6.40286e-010 0 -3.6325e-017
Spine  18.138 8.94218 24.0794
Spine1  -30.4203 8.67705 -27.4857
HEad  -6.65559 -38.8503 -0.503344
LeftShoulder1  0.208612 12.4688 12.3016
LeftArm  -21.4388 -4.74536 4.45949
LeftForeArm  27.4021 4.64766 -7.25266
LeftHand  0.0723108 5.64819 30.1346
RightShoulder  0.174937 -6.51282 -16.0662
RightArm  -50.4347 17.1444 -26.6459
RightForeArm  -13.3413 -1.67301 -0.403111
RightHand  -0.454668 -2.54335 -18.2639
LeftUpLeg  -16.8004 34.9999 15.0215
LeftLeg  40.7739 -21.014 -18.0206
LeftFoot  6.34308 4.97273 -31.5059
LeftToes  -2.09187e-010 -4.93792e-011 -8.21189e-011
208
root  -2.64964 36.807 13.9381 -24.8245 -67.7863 23.3598
RightUpLeg  7.40496 -22.0633 -46.8167
RightLeg  1.9251 -18.6323 -6.26538
RightFoot  49.4869 -4.47166 8.25202
RightToes  -6.40286e-010 0 -3.6325e-017
Spine  18.243 9.39383 23.7936
Spine1  -30.2596 9.01513 -28.7696
HEad  -11.554 -40.8301 1.95444
LeftShoulder1  0.459203 14.7315 14.2927
LeftArm  -25.0775 -7.71425 7.48109
LeftForeArm  21.1035 7.08914 -6.25121
LeftHand  0.0127666 5.43181 28.552
RightShoulder  0.0408716 -4.39735 -14.182
RightArm  -45.9099 17.3273 -27.1079
RightForeArm  -8.72974 -2.04082 1.73008
RightHand  -0.493263 -2.37809 -18.7569
LeftUpLeg  -17.7363 31.3646 13.9414
LeftLeg  41.5533 -19.8901 -17.5815
LeftFoot  1.84602 4.19048 -35.2814
LeftToes  -2.09187e-010 -4.93792e-011 -8.21189e-011
209
root  -2.37343 36.4835 14.147 -24.4094 -67.9581 23.5327
RightUpLeg  6.45082 -22.6914 -47.4422
RightLeg  2.56968 -16.9328 -6.26804
RightFoot  48.3914 -5.55082 10.296
RightToes  -6.40286e-010 0 -3.6325e-017
Spine  19.1484 9.66935 23.8811
Spine1  -31.025 9.12779 -29.962
HEad  -17.8431 -41.8185 4.45429
LeftShoulder1  0.773929 16.8657 16.1987
LeftArm  -28.4118 -10.3357 9.77992
LeftForeArm  15.6891 6.8432 -5.62939
LeftHand  -0.0968388 4.97936 27.104
RightShoulder  -0.0276799 -2.06069 -12.1689
RightArm  -40.8877 16.7275 -27.7035
RightForeArm  -2.98822 -1.09319 4.09989
RightHand  -0.571697 -1.95988 -19.1602
LeftUpLeg  -19.1973 26.3618 12.9523
LeftLeg  42.6702 -18.2275 -16.8309
LeftFoot  -2.86238 2.80983 -36.3598
LeftToes  -2.09187e-010 -4.93792e-011 -8.21189e-011
210
root  -2.0594 36.1352 14.2603 -23.6018 -68.5675 23.1049
RightUpLeg  5.63124 -22.9009 -47.6261
RightLeg  3.00253 -15.0435 -6.22862
RightFoot  46.5386 -7.43569 14.0422
RightToes  -6.40286e-010 0 -3.6325e-017
Spine  20.1681 9.99117 24.458
Spine1  -30.9913 9.61991 -31.2128
HEad  -26.4706 -41.3088 7.61123
LeftShoulder1  1.13582 18.9363 17.9417
LeftArm  -31.1282 -12.3314 11.1831
LeftForeArm  11.5663 6.73748 -5.03563
LeftHand  -0.146752 4.74935 26.1671
RightShoulder  -0.0130186 -0.0382187 -10.1748
RightArm  -34.9836 15.1766 -28.1813
RightForeArm  3.3111 0.980478 6.57511
RightHand  -0.71269 -1.06124 -19.0217
LeftUpLeg  -20.1524 21.4507 12.3465
LeftLeg  43.4822 -16.4958 -15.7468
LeftFoot  -8.49664 0.925348 -33.5588
LeftToes  -2.09187e-010 -4.93792e-011 -8.21189e-011
211
root  -1.72545 35.793 14.2528 -22.9332 -69.4918 22.8212
RightUpLeg  4.76615 -22.8905 -47.6992
RightLeg  3.1609 -12.2074 -5.87355
RightFoot  44.0369 -9.38 18.4036
RightToes  -6.40286e-010 0 -3.6325e-017
Spine  21.0431 10.4085 24.8925
Spine1  -30.0613 10.5148 -32.2948
HEad  -35.3743 -39.2722 10.1311
LeftShoulder1  1.5058 20.485 19.6154
LeftArm  -32.5528 -13.3345 12.0361
LeftForeArm  9.169 6.67659 -4.71923
LeftHand  -0.115318 4.89047 26.4013
RightShoulder  0.0711192 1.32374 -8.01972
RightArm  -28.3699 13.5248 -28.4338
RightForeArm  8.46325 3.47586 9.09309
RightHand  -0.876137 0.0255197 -18.7523
LeftUpLeg  -20.6069 18.1868 11.6916
LeftLeg  43.3564 -13.9463 -13.3358
LeftFoot  -14.3566 -0.685334 -28.6914
LeftToes  -2.09187e-010 -4.93792e-011 -8.21189e-011
